<svg width="1200" height="800" viewBox="0 0 1200 800" fill="none" xmlns="http://www.w3.org/2000/svg">
  <defs>
    <linearGradient id="bg" x1="90" y1="60" x2="1110" y2="740" gradientUnits="userSpaceOnUse">
      <stop stop-color="#2C0D16"/>
      <stop offset="0.55" stop-color="#561722"/>
      <stop offset="1" stop-color="#111A18"/>
    </linearGradient>
    <filter id="blur" x="-20%" y="-20%" width="140%" height="140%">
      <feGaussianBlur stdDeviation="18"/>
    </filter>
  </defs>
  <rect width="1200" height="800" rx="40" fill="url(#bg)"/>
  <ellipse cx="192" cy="106" rx="118" ry="40" fill="#FFF0D2" fill-opacity="0.82" filter="url(#blur)"/>
  <ellipse cx="1008" cy="106" rx="118" ry="40" fill="#FFF0D2" fill-opacity="0.82" filter="url(#blur)"/>
  <path d="M0 285C193 244 390 220 600 220C810 220 1007 244 1200 285V800H0V285Z" fill="#1A2435"/>
  <path d="M0 478C185 444 396 426 600 426C804 426 1015 444 1200 478V800H0V478Z" fill="#163827"/>
  <path d="M320 566L520 460L716 440L924 342" stroke="#F6D898" stroke-opacity="0.48" stroke-width="4" stroke-dasharray="12 10" stroke-linecap="round"/>
  <g opacity="0.95">
    <circle cx="470" cy="360" r="34" fill="#F1D3C1"/>
    <path d="M422 404C447 362 493 362 517 404L531 538H409L422 404Z" fill="#B7232D"/>
  </g>
  <g opacity="0.95">
    <circle cx="624" cy="386" r="34" fill="#F1D3C1"/>
    <path d="M576 430C601 388 647 388 671 430L685 564H563L576 430Z" fill="#B7232D"/>
  </g>
  <g opacity="0.95">
    <circle cx="772" cy="330" r="34" fill="#F1D3C1"/>
    <path d="M724 374C749 332 795 332 819 374L833 508H711L724 374Z" fill="#B7232D"/>
  </g>
  <g opacity="0.74">
    <circle cx="900" cy="456" r="30" fill="#F5F4EF"/>
    <path d="M858 496C880 460 920 460 941 496L953 608H845L858 496Z" fill="#F5F4EF"/>
  </g>
  <g opacity="0.46">
    <rect x="175" y="458" width="138" height="94" rx="18" fill="#111D1B"/>
    <rect x="355" y="407" width="138" height="94" rx="18" fill="#111D1B"/>
    <rect x="544" y="357" width="138" height="94" rx="18" fill="#111D1B"/>
  </g>
  <circle cx="854" cy="522" r="15" fill="#FAF7F0"/>
</svg>
