<svg width="1200" height="800" viewBox="0 0 1200 800" fill="none" xmlns="http://www.w3.org/2000/svg">
  <defs>
    <linearGradient id="sky" x1="600" y1="40" x2="600" y2="420" gradientUnits="userSpaceOnUse">
      <stop stop-color="#0A2644"/>
      <stop offset="1" stop-color="#144B7A"/>
    </linearGradient>
    <linearGradient id="pitch" x1="600" y1="410" x2="600" y2="800" gradientUnits="userSpaceOnUse">
      <stop stop-color="#1B744C"/>
      <stop offset="1" stop-color="#0E2E24"/>
    </linearGradient>
    <filter id="blur" x="-20%" y="-20%" width="140%" height="140%">
      <feGaussianBlur stdDeviation="20"/>
    </filter>
  </defs>
  <rect width="1200" height="800" rx="40" fill="#08192C"/>
  <rect x="0" y="0" width="1200" height="420" fill="url(#sky)"/>
  <rect x="0" y="410" width="1200" height="390" fill="url(#pitch)"/>
  <ellipse cx="170" cy="108" rx="118" ry="42" fill="#FFF1D1" fill-opacity="0.84" filter="url(#blur)"/>
  <ellipse cx="1030" cy="108" rx="118" ry="42" fill="#FFF1D1" fill-opacity="0.84" filter="url(#blur)"/>
  <path d="M0 256C187 221 388 204 600 204C812 204 1013 221 1200 256V460H0V256Z" fill="#10283E"/>
  <path d="M0 316C171 297 398 287 600 287C802 287 1028 297 1200 316V408H0V316Z" fill="#153553"/>
  <path d="M215 800L379 537L600 506L821 537L985 800H215Z" fill="#0C1117" fill-opacity="0.84"/>
  <path d="M404 539L600 492L794 539V800H404V539Z" fill="#101924"/>
  <path d="M404 539H794" stroke="#DDE7EE" stroke-opacity="0.16" stroke-width="4"/>
  <path d="M600 492V800" stroke="#DDE7EE" stroke-opacity="0.12" stroke-width="4"/>
  <path d="M337 596H864" stroke="#F5F7F9" stroke-opacity="0.22" stroke-width="3"/>
  <path d="M600 360L765 360" stroke="#E8F1F8" stroke-opacity="0.18" stroke-width="3"/>
  <path d="M795 360L893 333" stroke="#F7D48C" stroke-opacity="0.72" stroke-width="3" stroke-dasharray="9 8" stroke-linecap="round"/>
  <circle cx="900" cy="330" r="15" fill="#F7D48C"/>
  <g opacity="0.92">
    <circle cx="600" cy="564" r="40" fill="#1A2433"/>
    <path d="M545 612C573 563 626 563 654 612L672 800H528L545 612Z" fill="#1A2433"/>
  </g>
  <rect x="515" y="646" width="170" height="90" rx="12" fill="#25384A"/>
  <rect x="530" y="661" width="140" height="60" rx="8" fill="#79B6F2"/>
</svg>
