<svg width="1200" height="800" viewBox="0 0 1200 800" fill="none" xmlns="http://www.w3.org/2000/svg">
  <defs>
    <linearGradient id="sky" x1="600" y1="40" x2="600" y2="430" gradientUnits="userSpaceOnUse">
      <stop stop-color="#4D190B"/>
      <stop offset="0.55" stop-color="#A13E14"/>
      <stop offset="1" stop-color="#3A170C"/>
    </linearGradient>
    <linearGradient id="grass" x1="600" y1="420" x2="600" y2="800" gradientUnits="userSpaceOnUse">
      <stop stop-color="#2A4A2A"/>
      <stop offset="1" stop-color="#0B1B13"/>
    </linearGradient>
  </defs>
  <rect width="1200" height="800" rx="40" fill="#221007"/>
  <rect x="0" y="0" width="1200" height="430" fill="url(#sky)"/>
  <rect x="0" y="420" width="1200" height="380" fill="url(#grass)"/>
  <circle cx="867" cy="163" r="78" fill="#FFC46B"/>
  <path d="M0 300C213 252 413 232 600 232C787 232 993 252 1200 300V435H0V300Z" fill="#3A180D" fill-opacity="0.48"/>
  <path d="M0 500C190 472 395 452 600 452C805 452 1010 472 1200 500V800H0V500Z" fill="#17301C"/>
  <path d="M628 498L892 430" stroke="#FFE6B4" stroke-opacity="0.4" stroke-width="4" stroke-dasharray="10 10"/>
  <path d="M872 433L1070 360V598" stroke="#F4F2EA" stroke-opacity="0.82" stroke-width="6"/>
  <path d="M1070 598L900 720" stroke="#F4F2EA" stroke-opacity="0.82" stroke-width="6"/>
  <path d="M900 720L760 612" stroke="#F4F2EA" stroke-opacity="0.82" stroke-width="6"/>
  <circle cx="613" cy="349" r="48" fill="#F1D6C2"/>
  <path d="M544 418C573 374 649 374 680 418L705 560C712 611 673 653 622 653H602C551 653 512 611 519 560L544 418Z" fill="#F3E8D8"/>
  <path d="M603 648L533 768" stroke="#121925" stroke-width="18" stroke-linecap="round"/>
  <path d="M659 640L748 534" stroke="#121925" stroke-width="18" stroke-linecap="round"/>
  <path d="M626 504L834 442" stroke="#FFD06F" stroke-width="9" stroke-linecap="round"/>
  <circle cx="846" cy="437" r="18" fill="#FFD06F"/>
  <g opacity="0.55">
    <circle cx="980" cy="470" r="28" fill="#19222C"/>
    <path d="M941 505C961 471 998 471 1017 505L1029 618H929L941 505Z" fill="#19222C"/>
  </g>
</svg>
