<svg width="1200" height="800" viewBox="0 0 1200 800" fill="none" xmlns="http://www.w3.org/2000/svg">
  <defs>
    <linearGradient id="bg" x1="70" y1="40" x2="1130" y2="760" gradientUnits="userSpaceOnUse">
      <stop stop-color="#071021"/>
      <stop offset="0.55" stop-color="#102446"/>
      <stop offset="1" stop-color="#0B1830"/>
    </linearGradient>
    <linearGradient id="grass" x1="600" y1="420" x2="600" y2="800" gradientUnits="userSpaceOnUse">
      <stop stop-color="#16395B"/>
      <stop offset="1" stop-color="#050C18"/>
    </linearGradient>
    <filter id="blur" x="-20%" y="-20%" width="140%" height="140%">
      <feGaussianBlur stdDeviation="22"/>
    </filter>
  </defs>
  <rect width="1200" height="800" rx="40" fill="url(#bg)"/>
  <ellipse cx="205" cy="110" rx="120" ry="42" fill="#FFF0D1" fill-opacity="0.9" filter="url(#blur)"/>
  <ellipse cx="995" cy="110" rx="120" ry="42" fill="#FFF0D1" fill-opacity="0.9" filter="url(#blur)"/>
  <path d="M0 275C193 239 382 218 600 218C818 218 1007 239 1200 275V800H0V275Z" fill="#0B1930"/>
  <path d="M0 468C198 435 389 418 600 418C811 418 1003 435 1200 468V800H0V468Z" fill="url(#grass)"/>
  <path d="M832 382L1090 244" stroke="#F3D596" stroke-opacity="0.5" stroke-width="4" stroke-dasharray="12 10" stroke-linecap="round"/>
  <path d="M276 662C428 603 564 509 699 389" stroke="#F3D596" stroke-opacity="0.4" stroke-width="4" stroke-dasharray="12 10" stroke-linecap="round"/>
  <circle cx="742" cy="320" r="50" fill="#F1D7C8"/>
  <path d="M666 391C697 345 781 345 816 391L845 570C854 632 807 684 744 684H684C621 684 574 632 583 570L612 391H666Z" fill="#F4F4F2"/>
  <path d="M703 687L658 800" stroke="#111722" stroke-width="18" stroke-linecap="round"/>
  <path d="M777 687L825 800" stroke="#111722" stroke-width="18" stroke-linecap="round"/>
  <path d="M740 458L910 315" stroke="#FFD070" stroke-width="8" stroke-linecap="round" stroke-opacity="0.85"/>
  <path d="M911 315L995 260" stroke="#FFD070" stroke-width="8" stroke-linecap="round" stroke-opacity="0.65"/>
  <circle cx="1002" cy="255" r="18" fill="#FFD070"/>
  <g opacity="0.65">
    <circle cx="486" cy="468" r="34" fill="#20324D"/>
    <path d="M439 509C464 468 509 468 534 509L547 644H426L439 509Z" fill="#20324D"/>
  </g>
  <g opacity="0.58">
    <circle cx="328" cy="520" r="28" fill="#20324D"/>
    <path d="M289 555C309 521 346 521 365 555L377 649H277L289 555Z" fill="#20324D"/>
  </g>
</svg>
