<svg width="1200" height="800" viewBox="0 0 1200 800" fill="none" xmlns="http://www.w3.org/2000/svg">
  <defs>
    <linearGradient id="bg" x1="90" y1="60" x2="1110" y2="740" gradientUnits="userSpaceOnUse">
      <stop stop-color="#07172F"/>
      <stop offset="1" stop-color="#101C34"/>
    </linearGradient>
    <radialGradient id="spot" cx="0" cy="0" r="1" gradientUnits="userSpaceOnUse" gradientTransform="translate(600 420) rotate(90) scale(250 250)">
      <stop stop-color="#1D8B58" stop-opacity="0.7"/>
      <stop offset="1" stop-color="#1D8B58" stop-opacity="0"/>
    </radialGradient>
    <filter id="blur" x="-20%" y="-20%" width="140%" height="140%">
      <feGaussianBlur stdDeviation="18"/>
    </filter>
  </defs>
  <rect width="1200" height="800" rx="40" fill="url(#bg)"/>
  <ellipse cx="196" cy="118" rx="120" ry="42" fill="#FFF2CF" fill-opacity="0.9" filter="url(#blur)"/>
  <ellipse cx="1006" cy="118" rx="120" ry="42" fill="#FFF2CF" fill-opacity="0.9" filter="url(#blur)"/>
  <path d="M0 235C173 205 378 188 600 188C822 188 1018 205 1200 235V626H0V235Z" fill="#0F223C"/>
  <circle cx="600" cy="420" r="192" stroke="#D8E6F2" stroke-opacity="0.14" stroke-width="4"/>
  <circle cx="600" cy="420" r="88" stroke="#D8E6F2" stroke-opacity="0.2" stroke-width="4"/>
  <path d="M600 228V612" stroke="#D8E6F2" stroke-opacity="0.14" stroke-width="4"/>
  <path d="M408 420H792" stroke="#D8E6F2" stroke-opacity="0.14" stroke-width="4"/>
  <circle cx="600" cy="420" r="250" fill="url(#spot)"/>
  <circle cx="602" cy="356" r="58" fill="#F2D7C4"/>
  <path d="M518 430C552 386 650 386 686 430L714 594C721 645 681 689 630 689H574C523 689 483 645 490 594L518 430Z" fill="#D63A40"/>
  <path d="M561 694L521 800" stroke="#121925" stroke-width="18" stroke-linecap="round"/>
  <path d="M639 694L681 800" stroke="#121925" stroke-width="18" stroke-linecap="round"/>
  <path d="M604 470L454 370" stroke="#F6D892" stroke-width="4" stroke-linecap="round" stroke-dasharray="12 12"/>
  <path d="M604 470L768 358" stroke="#F6D892" stroke-width="4" stroke-linecap="round" stroke-dasharray="12 12"/>
  <path d="M604 470L831 465" stroke="#F6D892" stroke-width="4" stroke-linecap="round" stroke-dasharray="12 12"/>
  <circle cx="450" cy="366" r="18" fill="#F7F5F0"/>
  <circle cx="774" cy="355" r="18" fill="#F7F5F0"/>
  <circle cx="837" cy="465" r="18" fill="#F7F5F0"/>
  <circle cx="600" cy="469" r="20" fill="#FAF8F1"/>
  <circle cx="600" cy="469" r="34" stroke="#F6D892" stroke-opacity="0.55" stroke-width="2"/>
</svg>
