<svg width="1200" height="800" viewBox="0 0 1200 800" fill="none" xmlns="http://www.w3.org/2000/svg">
  <defs>
    <linearGradient id="sky" x1="600" y1="40" x2="600" y2="470" gradientUnits="userSpaceOnUse">
      <stop stop-color="#091322"/>
      <stop offset="1" stop-color="#17304F"/>
    </linearGradient>
    <linearGradient id="grass" x1="600" y1="420" x2="600" y2="800" gradientUnits="userSpaceOnUse">
      <stop stop-color="#1E7B4B"/>
      <stop offset="1" stop-color="#0A3B27"/>
    </linearGradient>
    <filter id="light" x="-20%" y="-20%" width="140%" height="140%">
      <feGaussianBlur stdDeviation="24"/>
    </filter>
  </defs>
  <rect width="1200" height="800" rx="40" fill="#09101D"/>
  <rect x="0" y="0" width="1200" height="470" fill="url(#sky)"/>
  <rect x="0" y="420" width="1200" height="380" fill="url(#grass)"/>
  <ellipse cx="180" cy="116" rx="126" ry="44" fill="#FFF4DA" fill-opacity="0.95" filter="url(#light)"/>
  <ellipse cx="420" cy="84" rx="118" ry="36" fill="#FFF4DA" fill-opacity="0.72" filter="url(#light)"/>
  <ellipse cx="760" cy="84" rx="118" ry="36" fill="#FFF4DA" fill-opacity="0.72" filter="url(#light)"/>
  <ellipse cx="1020" cy="116" rx="126" ry="44" fill="#FFF4DA" fill-opacity="0.95" filter="url(#light)"/>
  <path d="M0 252C180 216 402 196 600 196C798 196 1014 214 1200 252V427H0V252Z" fill="#0D172A"/>
  <path d="M0 336C247 311 421 300 600 300C779 300 964 311 1200 336V447H0V336Z" fill="#16263F"/>
  <g opacity="0.18">
    <path d="M0 564H1200" stroke="#F7FCEB" stroke-width="5"/>
    <path d="M160 800L430 420" stroke="#F7FCEB" stroke-width="4"/>
    <path d="M1040 800L770 420" stroke="#F7FCEB" stroke-width="4"/>
    <path d="M470 800L560 420" stroke="#F7FCEB" stroke-width="4"/>
    <path d="M730 800L640 420" stroke="#F7FCEB" stroke-width="4"/>
  </g>
  <path d="M612 402C677 402 732 455 742 523C752 598 692 679 617 679C542 679 478 608 491 523C503 449 547 402 612 402Z" fill="#D23137"/>
  <circle cx="610" cy="355" r="52" fill="#F1D1BE"/>
  <path d="M643 444C688 463 727 495 761 548" stroke="#F3B25E" stroke-width="9" stroke-linecap="round" stroke-opacity="0.85"/>
  <path d="M568 462C523 491 495 514 456 565" stroke="#F3B25E" stroke-width="9" stroke-linecap="round" stroke-opacity="0.75"/>
  <path d="M581 686L548 790" stroke="#111521" stroke-width="18" stroke-linecap="round"/>
  <path d="M638 686L674 790" stroke="#111521" stroke-width="18" stroke-linecap="round"/>
  <path d="M616 470L750 500" stroke="#FFE0AF" stroke-opacity="0.6" stroke-width="3" stroke-linecap="round" stroke-dasharray="10 12"/>
  <path d="M615 488L845 430" stroke="#FFE0AF" stroke-opacity="0.6" stroke-width="3" stroke-linecap="round" stroke-dasharray="10 12"/>
  <g opacity="0.82">
    <circle cx="870" cy="416" r="38" fill="#E9EEF8"/>
    <path d="M820 464C846 422 896 422 922 464L937 614H805L820 464Z" fill="#E9EEF8"/>
    <path d="M845 614L814 756" stroke="#141A25" stroke-width="16" stroke-linecap="round"/>
    <path d="M897 614L927 756" stroke="#141A25" stroke-width="16" stroke-linecap="round"/>
  </g>
  <g opacity="0.72">
    <circle cx="362" cy="446" r="30" fill="#F6F7FB"/>
    <path d="M319 487C342 448 385 448 407 487L420 602H306L319 487Z" fill="#D9E0EE"/>
    <path d="M340 602L316 724" stroke="#111521" stroke-width="14" stroke-linecap="round"/>
    <path d="M389 602L414 724" stroke="#111521" stroke-width="14" stroke-linecap="round"/>
  </g>
  <g opacity="0.85">
    <circle cx="931" cy="575" r="17" fill="#FAF8F1"/>
    <path d="M935 558L1007 523" stroke="#F8E1AF" stroke-width="3" stroke-dasharray="8 8" stroke-linecap="round"/>
  </g>
</svg>
